<?xml version="1.0" encoding="utf-8" standalone="no"?>
<!DOCTYPE svg PUBLIC "-//W3C//DTD SVG 1.1//EN"
  "http://www.w3.org/Graphics/SVG/1.1/DTD/svg11.dtd">
<svg xmlns:xlink="http://www.w3.org/1999/xlink" width="432pt" height="360pt" viewBox="0 0 432 360" xmlns="http://www.w3.org/2000/svg" version="1.1">
 <metadata>
  <rdf:RDF xmlns:dc="http://purl.org/dc/elements/1.1/" xmlns:cc="http://creativecommons.org/ns#" xmlns:rdf="http://www.w3.org/1999/02/22-rdf-syntax-ns#">
   <cc:Work>
    <dc:type rdf:resource="http://purl.org/dc/dcmitype/StillImage"/>
    <dc:date>2026-03-17T07:43:19.924655</dc:date>
    <dc:format>image/svg+xml</dc:format>
    <dc:creator>
     <cc:Agent>
      <dc:title>Matplotlib v3.10.8, https://matplotlib.org/</dc:title>
     </cc:Agent>
    </dc:creator>
   </cc:Work>
  </rdf:RDF>
 </metadata>
 <defs>
  <style type="text/css">*{stroke-linejoin: round; stroke-linecap: butt}</style>
 </defs>
 <g id="figure_1">
  <g id="patch_1">
   <path d="M 0 360 
L 432 360 
L 432 0 
L 0 0 
z
" style="fill: #ffffff"/>
  </g>
  <g id="axes_1">
   <g id="patch_2">
    <path d="M 50.96 318.04 
L 421.2 318.04 
L 421.2 26.88 
L 50.96 26.88 
z
" style="fill: #ffffff"/>
   </g>
   <g id="matplotlib.axis_1">
    <g id="xtick_1">
     <g id="line2d_1">
      <defs>
       <path id="md58d025b6d" d="M 0 0 
L 0 3.5 
" style="stroke: #000000; stroke-width: 0.8"/>
      </defs>
      <g>
       <use xlink:href="#md58d025b6d" x="143.52" y="318.04" style="stroke: #000000; stroke-width: 0.8"/>
      </g>
     </g>
     <g id="text_1">
      <!-- TP -->
      <g transform="translate(137.45125 332.638438) scale(0.1 -0.1)">
       <defs>
        <path id="DejaVuSans-54" d="M -19 4666 
L 3928 4666 
L 3928 4134 
L 2272 4134 
L 2272 0 
L 1638 0 
L 1638 4134 
L -19 4134 
L -19 4666 
z
" transform="scale(0.015625)"/>
        <path id="DejaVuSans-50" d="M 1259 4147 
L 1259 2394 
L 2053 2394 
Q 2494 2394 2734 2622 
Q 2975 2850 2975 3272 
Q 2975 3691 2734 3919 
Q 2494 4147 2053 4147 
L 1259 4147 
z
M 628 4666 
L 2053 4666 
Q 2838 4666 3239 4311 
Q 3641 3956 3641 3272 
Q 3641 2581 3239 2228 
Q 2838 1875 2053 1875 
L 1259 1875 
L 1259 0 
L 628 0 
L 628 4666 
z
" transform="scale(0.015625)"/>
       </defs>
       <use xlink:href="#DejaVuSans-54"/>
       <use xlink:href="#DejaVuSans-50" transform="translate(61.083984 0)"/>
      </g>
     </g>
    </g>
    <g id="xtick_2">
     <g id="line2d_2">
      <g>
       <use xlink:href="#md58d025b6d" x="328.64" y="318.04" style="stroke: #000000; stroke-width: 0.8"/>
      </g>
     </g>
     <g id="text_2">
      <!-- FN -->
      <g transform="translate(322.023594 332.638438) scale(0.1 -0.1)">
       <defs>
        <path id="DejaVuSans-46" d="M 628 4666 
L 3309 4666 
L 3309 4134 
L 1259 4134 
L 1259 2759 
L 3109 2759 
L 3109 2228 
L 1259 2228 
L 1259 0 
L 628 0 
L 628 4666 
z
" transform="scale(0.015625)"/>
        <path id="DejaVuSans-4e" d="M 628 4666 
L 1478 4666 
L 3547 763 
L 3547 4666 
L 4159 4666 
L 4159 0 
L 3309 0 
L 1241 3903 
L 1241 0 
L 628 0 
L 628 4666 
z
" transform="scale(0.015625)"/>
       </defs>
       <use xlink:href="#DejaVuSans-46"/>
       <use xlink:href="#DejaVuSans-4e" transform="translate(57.519531 0)"/>
      </g>
     </g>
    </g>
    <g id="text_3">
     <!-- Detection Outcome -->
     <g transform="translate(187.380781 346.316563) scale(0.1 -0.1)">
      <defs>
       <path id="DejaVuSans-44" d="M 1259 4147 
L 1259 519 
L 2022 519 
Q 2988 519 3436 956 
Q 3884 1394 3884 2338 
Q 3884 3275 3436 3711 
Q 2988 4147 2022 4147 
L 1259 4147 
z
M 628 4666 
L 1925 4666 
Q 3281 4666 3915 4102 
Q 4550 3538 4550 2338 
Q 4550 1131 3912 565 
Q 3275 0 1925 0 
L 628 0 
L 628 4666 
z
" transform="scale(0.015625)"/>
       <path id="DejaVuSans-65" d="M 3597 1894 
L 3597 1613 
L 953 1613 
Q 991 1019 1311 708 
Q 1631 397 2203 397 
Q 2534 397 2845 478 
Q 3156 559 3463 722 
L 3463 178 
Q 3153 47 2828 -22 
Q 2503 -91 2169 -91 
Q 1331 -91 842 396 
Q 353 884 353 1716 
Q 353 2575 817 3079 
Q 1281 3584 2069 3584 
Q 2775 3584 3186 3129 
Q 3597 2675 3597 1894 
z
M 3022 2063 
Q 3016 2534 2758 2815 
Q 2500 3097 2075 3097 
Q 1594 3097 1305 2825 
Q 1016 2553 972 2059 
L 3022 2063 
z
" transform="scale(0.015625)"/>
       <path id="DejaVuSans-74" d="M 1172 4494 
L 1172 3500 
L 2356 3500 
L 2356 3053 
L 1172 3053 
L 1172 1153 
Q 1172 725 1289 603 
Q 1406 481 1766 481 
L 2356 481 
L 2356 0 
L 1766 0 
Q 1100 0 847 248 
Q 594 497 594 1153 
L 594 3053 
L 172 3053 
L 172 3500 
L 594 3500 
L 594 4494 
L 1172 4494 
z
" transform="scale(0.015625)"/>
       <path id="DejaVuSans-63" d="M 3122 3366 
L 3122 2828 
Q 2878 2963 2633 3030 
Q 2388 3097 2138 3097 
Q 1578 3097 1268 2742 
Q 959 2388 959 1747 
Q 959 1106 1268 751 
Q 1578 397 2138 397 
Q 2388 397 2633 464 
Q 2878 531 3122 666 
L 3122 134 
Q 2881 22 2623 -34 
Q 2366 -91 2075 -91 
Q 1284 -91 818 406 
Q 353 903 353 1747 
Q 353 2603 823 3093 
Q 1294 3584 2113 3584 
Q 2378 3584 2631 3529 
Q 2884 3475 3122 3366 
z
" transform="scale(0.015625)"/>
       <path id="DejaVuSans-69" d="M 603 3500 
L 1178 3500 
L 1178 0 
L 603 0 
L 603 3500 
z
M 603 4863 
L 1178 4863 
L 1178 4134 
L 603 4134 
L 603 4863 
z
" transform="scale(0.015625)"/>
       <path id="DejaVuSans-6f" d="M 1959 3097 
Q 1497 3097 1228 2736 
Q 959 2375 959 1747 
Q 959 1119 1226 758 
Q 1494 397 1959 397 
Q 2419 397 2687 759 
Q 2956 1122 2956 1747 
Q 2956 2369 2687 2733 
Q 2419 3097 1959 3097 
z
M 1959 3584 
Q 2709 3584 3137 3096 
Q 3566 2609 3566 1747 
Q 3566 888 3137 398 
Q 2709 -91 1959 -91 
Q 1206 -91 779 398 
Q 353 888 353 1747 
Q 353 2609 779 3096 
Q 1206 3584 1959 3584 
z
" transform="scale(0.015625)"/>
       <path id="DejaVuSans-6e" d="M 3513 2113 
L 3513 0 
L 2938 0 
L 2938 2094 
Q 2938 2591 2744 2837 
Q 2550 3084 2163 3084 
Q 1697 3084 1428 2787 
Q 1159 2491 1159 1978 
L 1159 0 
L 581 0 
L 581 3500 
L 1159 3500 
L 1159 2956 
Q 1366 3272 1645 3428 
Q 1925 3584 2291 3584 
Q 2894 3584 3203 3211 
Q 3513 2838 3513 2113 
z
" transform="scale(0.015625)"/>
       <path id="DejaVuSans-20" transform="scale(0.015625)"/>
       <path id="DejaVuSans-4f" d="M 2522 4238 
Q 1834 4238 1429 3725 
Q 1025 3213 1025 2328 
Q 1025 1447 1429 934 
Q 1834 422 2522 422 
Q 3209 422 3611 934 
Q 4013 1447 4013 2328 
Q 4013 3213 3611 3725 
Q 3209 4238 2522 4238 
z
M 2522 4750 
Q 3503 4750 4090 4092 
Q 4678 3434 4678 2328 
Q 4678 1225 4090 567 
Q 3503 -91 2522 -91 
Q 1538 -91 948 565 
Q 359 1222 359 2328 
Q 359 3434 948 4092 
Q 1538 4750 2522 4750 
z
" transform="scale(0.015625)"/>
       <path id="DejaVuSans-75" d="M 544 1381 
L 544 3500 
L 1119 3500 
L 1119 1403 
Q 1119 906 1312 657 
Q 1506 409 1894 409 
Q 2359 409 2629 706 
Q 2900 1003 2900 1516 
L 2900 3500 
L 3475 3500 
L 3475 0 
L 2900 0 
L 2900 538 
Q 2691 219 2414 64 
Q 2138 -91 1772 -91 
Q 1169 -91 856 284 
Q 544 659 544 1381 
z
M 1991 3584 
L 1991 3584 
z
" transform="scale(0.015625)"/>
       <path id="DejaVuSans-6d" d="M 3328 2828 
Q 3544 3216 3844 3400 
Q 4144 3584 4550 3584 
Q 5097 3584 5394 3201 
Q 5691 2819 5691 2113 
L 5691 0 
L 5113 0 
L 5113 2094 
Q 5113 2597 4934 2840 
Q 4756 3084 4391 3084 
Q 3944 3084 3684 2787 
Q 3425 2491 3425 1978 
L 3425 0 
L 2847 0 
L 2847 2094 
Q 2847 2600 2669 2842 
Q 2491 3084 2119 3084 
Q 1678 3084 1418 2786 
Q 1159 2488 1159 1978 
L 1159 0 
L 581 0 
L 581 3500 
L 1159 3500 
L 1159 2956 
Q 1356 3278 1631 3431 
Q 1906 3584 2284 3584 
Q 2666 3584 2933 3390 
Q 3200 3197 3328 2828 
z
" transform="scale(0.015625)"/>
      </defs>
      <use xlink:href="#DejaVuSans-44"/>
      <use xlink:href="#DejaVuSans-65" transform="translate(77.001953 0)"/>
      <use xlink:href="#DejaVuSans-74" transform="translate(138.525391 0)"/>
      <use xlink:href="#DejaVuSans-65" transform="translate(177.734375 0)"/>
      <use xlink:href="#DejaVuSans-63" transform="translate(239.257812 0)"/>
      <use xlink:href="#DejaVuSans-74" transform="translate(294.238281 0)"/>
      <use xlink:href="#DejaVuSans-69" transform="translate(333.447266 0)"/>
      <use xlink:href="#DejaVuSans-6f" transform="translate(361.230469 0)"/>
      <use xlink:href="#DejaVuSans-6e" transform="translate(422.412109 0)"/>
      <use xlink:href="#DejaVuSans-20" transform="translate(485.791016 0)"/>
      <use xlink:href="#DejaVuSans-4f" transform="translate(517.578125 0)"/>
      <use xlink:href="#DejaVuSans-75" transform="translate(596.289062 0)"/>
      <use xlink:href="#DejaVuSans-74" transform="translate(659.667969 0)"/>
      <use xlink:href="#DejaVuSans-63" transform="translate(698.876953 0)"/>
      <use xlink:href="#DejaVuSans-6f" transform="translate(753.857422 0)"/>
      <use xlink:href="#DejaVuSans-6d" transform="translate(815.039062 0)"/>
      <use xlink:href="#DejaVuSans-65" transform="translate(912.451172 0)"/>
     </g>
    </g>
   </g>
   <g id="matplotlib.axis_2">
    <g id="ytick_1">
     <g id="line2d_3">
      <defs>
       <path id="m657209d0b1" d="M 0 0 
L -3.5 0 
" style="stroke: #000000; stroke-width: 0.8"/>
      </defs>
      <g>
       <use xlink:href="#m657209d0b1" x="50.96" y="308.431357" style="stroke: #000000; stroke-width: 0.8"/>
      </g>
     </g>
     <g id="text_4">
      <!-- 60 -->
      <g transform="translate(31.235 312.230576) scale(0.1 -0.1)">
       <defs>
        <path id="DejaVuSans-36" d="M 2113 2584 
Q 1688 2584 1439 2293 
Q 1191 2003 1191 1497 
Q 1191 994 1439 701 
Q 1688 409 2113 409 
Q 2538 409 2786 701 
Q 3034 994 3034 1497 
Q 3034 2003 2786 2293 
Q 2538 2584 2113 2584 
z
M 3366 4563 
L 3366 3988 
Q 3128 4100 2886 4159 
Q 2644 4219 2406 4219 
Q 1781 4219 1451 3797 
Q 1122 3375 1075 2522 
Q 1259 2794 1537 2939 
Q 1816 3084 2150 3084 
Q 2853 3084 3261 2657 
Q 3669 2231 3669 1497 
Q 3669 778 3244 343 
Q 2819 -91 2113 -91 
Q 1303 -91 875 529 
Q 447 1150 447 2328 
Q 447 3434 972 4092 
Q 1497 4750 2381 4750 
Q 2619 4750 2861 4703 
Q 3103 4656 3366 4563 
z
" transform="scale(0.015625)"/>
        <path id="DejaVuSans-30" d="M 2034 4250 
Q 1547 4250 1301 3770 
Q 1056 3291 1056 2328 
Q 1056 1369 1301 889 
Q 1547 409 2034 409 
Q 2525 409 2770 889 
Q 3016 1369 3016 2328 
Q 3016 3291 2770 3770 
Q 2525 4250 2034 4250 
z
M 2034 4750 
Q 2819 4750 3233 4129 
Q 3647 3509 3647 2328 
Q 3647 1150 3233 529 
Q 2819 -91 2034 -91 
Q 1250 -91 836 529 
Q 422 1150 422 2328 
Q 422 3509 836 4129 
Q 1250 4750 2034 4750 
z
" transform="scale(0.015625)"/>
       </defs>
       <use xlink:href="#DejaVuSans-36"/>
       <use xlink:href="#DejaVuSans-30" transform="translate(63.623047 0)"/>
      </g>
     </g>
    </g>
    <g id="ytick_2">
     <g id="line2d_4">
      <g>
       <use xlink:href="#m657209d0b1" x="50.96" y="272.172329" style="stroke: #000000; stroke-width: 0.8"/>
      </g>
     </g>
     <g id="text_5">
      <!-- 80 -->
      <g transform="translate(31.235 275.971548) scale(0.1 -0.1)">
       <defs>
        <path id="DejaVuSans-38" d="M 2034 2216 
Q 1584 2216 1326 1975 
Q 1069 1734 1069 1313 
Q 1069 891 1326 650 
Q 1584 409 2034 409 
Q 2484 409 2743 651 
Q 3003 894 3003 1313 
Q 3003 1734 2745 1975 
Q 2488 2216 2034 2216 
z
M 1403 2484 
Q 997 2584 770 2862 
Q 544 3141 544 3541 
Q 544 4100 942 4425 
Q 1341 4750 2034 4750 
Q 2731 4750 3128 4425 
Q 3525 4100 3525 3541 
Q 3525 3141 3298 2862 
Q 3072 2584 2669 2484 
Q 3125 2378 3379 2068 
Q 3634 1759 3634 1313 
Q 3634 634 3220 271 
Q 2806 -91 2034 -91 
Q 1263 -91 848 271 
Q 434 634 434 1313 
Q 434 1759 690 2068 
Q 947 2378 1403 2484 
z
M 1172 3481 
Q 1172 3119 1398 2916 
Q 1625 2713 2034 2713 
Q 2441 2713 2670 2916 
Q 2900 3119 2900 3481 
Q 2900 3844 2670 4047 
Q 2441 4250 2034 4250 
Q 1625 4250 1398 4047 
Q 1172 3844 1172 3481 
z
" transform="scale(0.015625)"/>
       </defs>
       <use xlink:href="#DejaVuSans-38"/>
       <use xlink:href="#DejaVuSans-30" transform="translate(63.623047 0)"/>
      </g>
     </g>
    </g>
    <g id="ytick_3">
     <g id="line2d_5">
      <g>
       <use xlink:href="#m657209d0b1" x="50.96" y="235.9133" style="stroke: #000000; stroke-width: 0.8"/>
      </g>
     </g>
     <g id="text_6">
      <!-- 100 -->
      <g transform="translate(24.8725 239.712519) scale(0.1 -0.1)">
       <defs>
        <path id="DejaVuSans-31" d="M 794 531 
L 1825 531 
L 1825 4091 
L 703 3866 
L 703 4441 
L 1819 4666 
L 2450 4666 
L 2450 531 
L 3481 531 
L 3481 0 
L 794 0 
L 794 531 
z
" transform="scale(0.015625)"/>
       </defs>
       <use xlink:href="#DejaVuSans-31"/>
       <use xlink:href="#DejaVuSans-30" transform="translate(63.623047 0)"/>
       <use xlink:href="#DejaVuSans-30" transform="translate(127.246094 0)"/>
      </g>
     </g>
    </g>
    <g id="ytick_4">
     <g id="line2d_6">
      <g>
       <use xlink:href="#m657209d0b1" x="50.96" y="199.654271" style="stroke: #000000; stroke-width: 0.8"/>
      </g>
     </g>
     <g id="text_7">
      <!-- 120 -->
      <g transform="translate(24.8725 203.45349) scale(0.1 -0.1)">
       <defs>
        <path id="DejaVuSans-32" d="M 1228 531 
L 3431 531 
L 3431 0 
L 469 0 
L 469 531 
Q 828 903 1448 1529 
Q 2069 2156 2228 2338 
Q 2531 2678 2651 2914 
Q 2772 3150 2772 3378 
Q 2772 3750 2511 3984 
Q 2250 4219 1831 4219 
Q 1534 4219 1204 4116 
Q 875 4013 500 3803 
L 500 4441 
Q 881 4594 1212 4672 
Q 1544 4750 1819 4750 
Q 2544 4750 2975 4387 
Q 3406 4025 3406 3419 
Q 3406 3131 3298 2873 
Q 3191 2616 2906 2266 
Q 2828 2175 2409 1742 
Q 1991 1309 1228 531 
z
" transform="scale(0.015625)"/>
       </defs>
       <use xlink:href="#DejaVuSans-31"/>
       <use xlink:href="#DejaVuSans-32" transform="translate(63.623047 0)"/>
       <use xlink:href="#DejaVuSans-30" transform="translate(127.246094 0)"/>
      </g>
     </g>
    </g>
    <g id="ytick_5">
     <g id="line2d_7">
      <g>
       <use xlink:href="#m657209d0b1" x="50.96" y="163.395243" style="stroke: #000000; stroke-width: 0.8"/>
      </g>
     </g>
     <g id="text_8">
      <!-- 140 -->
      <g transform="translate(24.8725 167.194462) scale(0.1 -0.1)">
       <defs>
        <path id="DejaVuSans-34" d="M 2419 4116 
L 825 1625 
L 2419 1625 
L 2419 4116 
z
M 2253 4666 
L 3047 4666 
L 3047 1625 
L 3713 1625 
L 3713 1100 
L 3047 1100 
L 3047 0 
L 2419 0 
L 2419 1100 
L 313 1100 
L 313 1709 
L 2253 4666 
z
" transform="scale(0.015625)"/>
       </defs>
       <use xlink:href="#DejaVuSans-31"/>
       <use xlink:href="#DejaVuSans-34" transform="translate(63.623047 0)"/>
       <use xlink:href="#DejaVuSans-30" transform="translate(127.246094 0)"/>
      </g>
     </g>
    </g>
    <g id="ytick_6">
     <g id="line2d_8">
      <g>
       <use xlink:href="#m657209d0b1" x="50.96" y="127.136214" style="stroke: #000000; stroke-width: 0.8"/>
      </g>
     </g>
     <g id="text_9">
      <!-- 160 -->
      <g transform="translate(24.8725 130.935433) scale(0.1 -0.1)">
       <use xlink:href="#DejaVuSans-31"/>
       <use xlink:href="#DejaVuSans-36" transform="translate(63.623047 0)"/>
       <use xlink:href="#DejaVuSans-30" transform="translate(127.246094 0)"/>
      </g>
     </g>
    </g>
    <g id="ytick_7">
     <g id="line2d_9">
      <g>
       <use xlink:href="#m657209d0b1" x="50.96" y="90.877186" style="stroke: #000000; stroke-width: 0.8"/>
      </g>
     </g>
     <g id="text_10">
      <!-- 180 -->
      <g transform="translate(24.8725 94.676404) scale(0.1 -0.1)">
       <use xlink:href="#DejaVuSans-31"/>
       <use xlink:href="#DejaVuSans-38" transform="translate(63.623047 0)"/>
       <use xlink:href="#DejaVuSans-30" transform="translate(127.246094 0)"/>
      </g>
     </g>
    </g>
    <g id="ytick_8">
     <g id="line2d_10">
      <g>
       <use xlink:href="#m657209d0b1" x="50.96" y="54.618157" style="stroke: #000000; stroke-width: 0.8"/>
      </g>
     </g>
     <g id="text_11">
      <!-- 200 -->
      <g transform="translate(24.8725 58.417376) scale(0.1 -0.1)">
       <use xlink:href="#DejaVuSans-32"/>
       <use xlink:href="#DejaVuSans-30" transform="translate(63.623047 0)"/>
       <use xlink:href="#DejaVuSans-30" transform="translate(127.246094 0)"/>
      </g>
     </g>
    </g>
    <g id="text_12">
     <!-- Total VNTR Length (both alleles, repeats) -->
     <g transform="translate(18.792813 274.759219) rotate(-90) scale(0.1 -0.1)">
      <defs>
       <path id="DejaVuSans-61" d="M 2194 1759 
Q 1497 1759 1228 1600 
Q 959 1441 959 1056 
Q 959 750 1161 570 
Q 1363 391 1709 391 
Q 2188 391 2477 730 
Q 2766 1069 2766 1631 
L 2766 1759 
L 2194 1759 
z
M 3341 1997 
L 3341 0 
L 2766 0 
L 2766 531 
Q 2569 213 2275 61 
Q 1981 -91 1556 -91 
Q 1019 -91 701 211 
Q 384 513 384 1019 
Q 384 1609 779 1909 
Q 1175 2209 1959 2209 
L 2766 2209 
L 2766 2266 
Q 2766 2663 2505 2880 
Q 2244 3097 1772 3097 
Q 1472 3097 1187 3025 
Q 903 2953 641 2809 
L 641 3341 
Q 956 3463 1253 3523 
Q 1550 3584 1831 3584 
Q 2591 3584 2966 3190 
Q 3341 2797 3341 1997 
z
" transform="scale(0.015625)"/>
       <path id="DejaVuSans-6c" d="M 603 4863 
L 1178 4863 
L 1178 0 
L 603 0 
L 603 4863 
z
" transform="scale(0.015625)"/>
       <path id="DejaVuSans-56" d="M 1831 0 
L 50 4666 
L 709 4666 
L 2188 738 
L 3669 4666 
L 4325 4666 
L 2547 0 
L 1831 0 
z
" transform="scale(0.015625)"/>
       <path id="DejaVuSans-52" d="M 2841 2188 
Q 3044 2119 3236 1894 
Q 3428 1669 3622 1275 
L 4263 0 
L 3584 0 
L 2988 1197 
Q 2756 1666 2539 1819 
Q 2322 1972 1947 1972 
L 1259 1972 
L 1259 0 
L 628 0 
L 628 4666 
L 2053 4666 
Q 2853 4666 3247 4331 
Q 3641 3997 3641 3322 
Q 3641 2881 3436 2590 
Q 3231 2300 2841 2188 
z
M 1259 4147 
L 1259 2491 
L 2053 2491 
Q 2509 2491 2742 2702 
Q 2975 2913 2975 3322 
Q 2975 3731 2742 3939 
Q 2509 4147 2053 4147 
L 1259 4147 
z
" transform="scale(0.015625)"/>
       <path id="DejaVuSans-4c" d="M 628 4666 
L 1259 4666 
L 1259 531 
L 3531 531 
L 3531 0 
L 628 0 
L 628 4666 
z
" transform="scale(0.015625)"/>
       <path id="DejaVuSans-67" d="M 2906 1791 
Q 2906 2416 2648 2759 
Q 2391 3103 1925 3103 
Q 1463 3103 1205 2759 
Q 947 2416 947 1791 
Q 947 1169 1205 825 
Q 1463 481 1925 481 
Q 2391 481 2648 825 
Q 2906 1169 2906 1791 
z
M 3481 434 
Q 3481 -459 3084 -895 
Q 2688 -1331 1869 -1331 
Q 1566 -1331 1297 -1286 
Q 1028 -1241 775 -1147 
L 775 -588 
Q 1028 -725 1275 -790 
Q 1522 -856 1778 -856 
Q 2344 -856 2625 -561 
Q 2906 -266 2906 331 
L 2906 616 
Q 2728 306 2450 153 
Q 2172 0 1784 0 
Q 1141 0 747 490 
Q 353 981 353 1791 
Q 353 2603 747 3093 
Q 1141 3584 1784 3584 
Q 2172 3584 2450 3431 
Q 2728 3278 2906 2969 
L 2906 3500 
L 3481 3500 
L 3481 434 
z
" transform="scale(0.015625)"/>
       <path id="DejaVuSans-68" d="M 3513 2113 
L 3513 0 
L 2938 0 
L 2938 2094 
Q 2938 2591 2744 2837 
Q 2550 3084 2163 3084 
Q 1697 3084 1428 2787 
Q 1159 2491 1159 1978 
L 1159 0 
L 581 0 
L 581 4863 
L 1159 4863 
L 1159 2956 
Q 1366 3272 1645 3428 
Q 1925 3584 2291 3584 
Q 2894 3584 3203 3211 
Q 3513 2838 3513 2113 
z
" transform="scale(0.015625)"/>
       <path id="DejaVuSans-28" d="M 1984 4856 
Q 1566 4138 1362 3434 
Q 1159 2731 1159 2009 
Q 1159 1288 1364 580 
Q 1569 -128 1984 -844 
L 1484 -844 
Q 1016 -109 783 600 
Q 550 1309 550 2009 
Q 550 2706 781 3412 
Q 1013 4119 1484 4856 
L 1984 4856 
z
" transform="scale(0.015625)"/>
       <path id="DejaVuSans-62" d="M 3116 1747 
Q 3116 2381 2855 2742 
Q 2594 3103 2138 3103 
Q 1681 3103 1420 2742 
Q 1159 2381 1159 1747 
Q 1159 1113 1420 752 
Q 1681 391 2138 391 
Q 2594 391 2855 752 
Q 3116 1113 3116 1747 
z
M 1159 2969 
Q 1341 3281 1617 3432 
Q 1894 3584 2278 3584 
Q 2916 3584 3314 3078 
Q 3713 2572 3713 1747 
Q 3713 922 3314 415 
Q 2916 -91 2278 -91 
Q 1894 -91 1617 61 
Q 1341 213 1159 525 
L 1159 0 
L 581 0 
L 581 4863 
L 1159 4863 
L 1159 2969 
z
" transform="scale(0.015625)"/>
       <path id="DejaVuSans-73" d="M 2834 3397 
L 2834 2853 
Q 2591 2978 2328 3040 
Q 2066 3103 1784 3103 
Q 1356 3103 1142 2972 
Q 928 2841 928 2578 
Q 928 2378 1081 2264 
Q 1234 2150 1697 2047 
L 1894 2003 
Q 2506 1872 2764 1633 
Q 3022 1394 3022 966 
Q 3022 478 2636 193 
Q 2250 -91 1575 -91 
Q 1294 -91 989 -36 
Q 684 19 347 128 
L 347 722 
Q 666 556 975 473 
Q 1284 391 1588 391 
Q 1994 391 2212 530 
Q 2431 669 2431 922 
Q 2431 1156 2273 1281 
Q 2116 1406 1581 1522 
L 1381 1569 
Q 847 1681 609 1914 
Q 372 2147 372 2553 
Q 372 3047 722 3315 
Q 1072 3584 1716 3584 
Q 2034 3584 2315 3537 
Q 2597 3491 2834 3397 
z
" transform="scale(0.015625)"/>
       <path id="DejaVuSans-2c" d="M 750 794 
L 1409 794 
L 1409 256 
L 897 -744 
L 494 -744 
L 750 256 
L 750 794 
z
" transform="scale(0.015625)"/>
       <path id="DejaVuSans-72" d="M 2631 2963 
Q 2534 3019 2420 3045 
Q 2306 3072 2169 3072 
Q 1681 3072 1420 2755 
Q 1159 2438 1159 1844 
L 1159 0 
L 581 0 
L 581 3500 
L 1159 3500 
L 1159 2956 
Q 1341 3275 1631 3429 
Q 1922 3584 2338 3584 
Q 2397 3584 2469 3576 
Q 2541 3569 2628 3553 
L 2631 2963 
z
" transform="scale(0.015625)"/>
       <path id="DejaVuSans-70" d="M 1159 525 
L 1159 -1331 
L 581 -1331 
L 581 3500 
L 1159 3500 
L 1159 2969 
Q 1341 3281 1617 3432 
Q 1894 3584 2278 3584 
Q 2916 3584 3314 3078 
Q 3713 2572 3713 1747 
Q 3713 922 3314 415 
Q 2916 -91 2278 -91 
Q 1894 -91 1617 61 
Q 1341 213 1159 525 
z
M 3116 1747 
Q 3116 2381 2855 2742 
Q 2594 3103 2138 3103 
Q 1681 3103 1420 2742 
Q 1159 2381 1159 1747 
Q 1159 1113 1420 752 
Q 1681 391 2138 391 
Q 2594 391 2855 752 
Q 3116 1113 3116 1747 
z
" transform="scale(0.015625)"/>
       <path id="DejaVuSans-29" d="M 513 4856 
L 1013 4856 
Q 1481 4119 1714 3412 
Q 1947 2706 1947 2009 
Q 1947 1309 1714 600 
Q 1481 -109 1013 -844 
L 513 -844 
Q 928 -128 1133 580 
Q 1338 1288 1338 2009 
Q 1338 2731 1133 3434 
Q 928 4138 513 4856 
z
" transform="scale(0.015625)"/>
      </defs>
      <use xlink:href="#DejaVuSans-54"/>
      <use xlink:href="#DejaVuSans-6f" transform="translate(44.083984 0)"/>
      <use xlink:href="#DejaVuSans-74" transform="translate(105.265625 0)"/>
      <use xlink:href="#DejaVuSans-61" transform="translate(144.474609 0)"/>
      <use xlink:href="#DejaVuSans-6c" transform="translate(205.753906 0)"/>
      <use xlink:href="#DejaVuSans-20" transform="translate(233.537109 0)"/>
      <use xlink:href="#DejaVuSans-56" transform="translate(265.324219 0)"/>
      <use xlink:href="#DejaVuSans-4e" transform="translate(333.732422 0)"/>
      <use xlink:href="#DejaVuSans-54" transform="translate(408.537109 0)"/>
      <use xlink:href="#DejaVuSans-52" transform="translate(469.621094 0)"/>
      <use xlink:href="#DejaVuSans-20" transform="translate(539.103516 0)"/>
      <use xlink:href="#DejaVuSans-4c" transform="translate(570.890625 0)"/>
      <use xlink:href="#DejaVuSans-65" transform="translate(624.853516 0)"/>
      <use xlink:href="#DejaVuSans-6e" transform="translate(686.376953 0)"/>
      <use xlink:href="#DejaVuSans-67" transform="translate(749.755859 0)"/>
      <use xlink:href="#DejaVuSans-74" transform="translate(813.232422 0)"/>
      <use xlink:href="#DejaVuSans-68" transform="translate(852.441406 0)"/>
      <use xlink:href="#DejaVuSans-20" transform="translate(915.820312 0)"/>
      <use xlink:href="#DejaVuSans-28" transform="translate(947.607422 0)"/>
      <use xlink:href="#DejaVuSans-62" transform="translate(986.621094 0)"/>
      <use xlink:href="#DejaVuSans-6f" transform="translate(1050.097656 0)"/>
      <use xlink:href="#DejaVuSans-74" transform="translate(1111.279297 0)"/>
      <use xlink:href="#DejaVuSans-68" transform="translate(1150.488281 0)"/>
      <use xlink:href="#DejaVuSans-20" transform="translate(1213.867188 0)"/>
      <use xlink:href="#DejaVuSans-61" transform="translate(1245.654297 0)"/>
      <use xlink:href="#DejaVuSans-6c" transform="translate(1306.933594 0)"/>
      <use xlink:href="#DejaVuSans-6c" transform="translate(1334.716797 0)"/>
      <use xlink:href="#DejaVuSans-65" transform="translate(1362.5 0)"/>
      <use xlink:href="#DejaVuSans-6c" transform="translate(1424.023438 0)"/>
      <use xlink:href="#DejaVuSans-65" transform="translate(1451.806641 0)"/>
      <use xlink:href="#DejaVuSans-73" transform="translate(1513.330078 0)"/>
      <use xlink:href="#DejaVuSans-2c" transform="translate(1565.429688 0)"/>
      <use xlink:href="#DejaVuSans-20" transform="translate(1597.216797 0)"/>
      <use xlink:href="#DejaVuSans-72" transform="translate(1629.003906 0)"/>
      <use xlink:href="#DejaVuSans-65" transform="translate(1667.867188 0)"/>
      <use xlink:href="#DejaVuSans-70" transform="translate(1729.390625 0)"/>
      <use xlink:href="#DejaVuSans-65" transform="translate(1792.867188 0)"/>
      <use xlink:href="#DejaVuSans-61" transform="translate(1854.390625 0)"/>
      <use xlink:href="#DejaVuSans-74" transform="translate(1915.669922 0)"/>
      <use xlink:href="#DejaVuSans-73" transform="translate(1954.878906 0)"/>
      <use xlink:href="#DejaVuSans-29" transform="translate(2006.978516 0)"/>
     </g>
    </g>
   </g>
   <g id="patch_3">
    <path d="M 97.24 243.165106 
L 189.8 243.165106 
L 189.8 156.143437 
L 97.24 156.143437 
L 97.24 243.165106 
z
" clip-path="url(#p80b3501d6f)" style="fill: #3a923a; stroke: #3d3d3d; stroke-linejoin: miter"/>
   </g>
   <g id="line2d_11">
    <path d="M 143.52 243.165106 
L 143.52 304.805455 
" clip-path="url(#p80b3501d6f)" style="fill: none; stroke: #3d3d3d"/>
   </g>
   <g id="line2d_12">
    <path d="M 143.52 156.143437 
L 143.52 40.114545 
" clip-path="url(#p80b3501d6f)" style="fill: none; stroke: #3d3d3d"/>
   </g>
   <g id="line2d_13">
    <path d="M 120.38 304.805455 
L 166.66 304.805455 
" clip-path="url(#p80b3501d6f)" style="fill: none; stroke: #3d3d3d; stroke-linecap: square"/>
   </g>
   <g id="line2d_14">
    <path d="M 120.38 40.114545 
L 166.66 40.114545 
" clip-path="url(#p80b3501d6f)" style="fill: none; stroke: #3d3d3d; stroke-linecap: square"/>
   </g>
   <g id="patch_4">
    <path d="M 282.36 196.028369 
L 374.92 196.028369 
L 374.92 130.762117 
L 282.36 130.762117 
L 282.36 196.028369 
z
" clip-path="url(#p80b3501d6f)" style="fill: #c03d3e; stroke: #3d3d3d; stroke-linejoin: miter"/>
   </g>
   <g id="line2d_15">
    <path d="M 328.64 196.028369 
L 328.64 254.042814 
" clip-path="url(#p80b3501d6f)" style="fill: none; stroke: #3d3d3d"/>
   </g>
   <g id="line2d_16">
    <path d="M 328.64 130.762117 
L 328.64 63.682914 
" clip-path="url(#p80b3501d6f)" style="fill: none; stroke: #3d3d3d"/>
   </g>
   <g id="line2d_17">
    <path d="M 305.5 254.042814 
L 351.78 254.042814 
" clip-path="url(#p80b3501d6f)" style="fill: none; stroke: #3d3d3d; stroke-linecap: square"/>
   </g>
   <g id="line2d_18">
    <path d="M 305.5 63.682914 
L 351.78 63.682914 
" clip-path="url(#p80b3501d6f)" style="fill: none; stroke: #3d3d3d; stroke-linecap: square"/>
   </g>
   <g id="line2d_19">
    <path d="M 97.24 199.654271 
L 189.8 199.654271 
" clip-path="url(#p80b3501d6f)" style="fill: none; stroke: #3d3d3d"/>
   </g>
   <g id="line2d_20">
    <path d="M 282.36 165.208194 
L 374.92 165.208194 
" clip-path="url(#p80b3501d6f)" style="fill: none; stroke: #3d3d3d"/>
   </g>
   <g id="patch_5">
    <path d="M 50.96 318.04 
L 50.96 26.88 
" style="fill: none; stroke: #000000; stroke-width: 0.8; stroke-linejoin: miter; stroke-linecap: square"/>
   </g>
   <g id="patch_6">
    <path d="M 421.2 318.04 
L 421.2 26.88 
" style="fill: none; stroke: #000000; stroke-width: 0.8; stroke-linejoin: miter; stroke-linecap: square"/>
   </g>
   <g id="patch_7">
    <path d="M 50.96 318.04 
L 421.2 318.04 
" style="fill: none; stroke: #000000; stroke-width: 0.8; stroke-linejoin: miter; stroke-linecap: square"/>
   </g>
   <g id="patch_8">
    <path d="M 50.96 26.88 
L 421.2 26.88 
" style="fill: none; stroke: #000000; stroke-width: 0.8; stroke-linejoin: miter; stroke-linecap: square"/>
   </g>
   <g id="PathCollection_1">
    <defs>
     <path id="C0_0_bbd2527f8f" d="M 0 2 
C 0.530406 2 1.03916 1.789267 1.414214 1.414214 
C 1.789267 1.03916 2 0.530406 2 -0 
C 2 -0.530406 1.789267 -1.03916 1.414214 -1.414214 
C 1.03916 -1.789267 0.530406 -2 0 -2 
C -0.530406 -2 -1.03916 -1.789267 -1.414214 -1.414214 
C -1.789267 -1.03916 -2 -0.530406 -2 0 
C -2 0.530406 -1.789267 1.03916 -1.414214 1.414214 
C -1.03916 1.789267 -0.530406 2 0 2 
z
"/>
    </defs>
    <g clip-path="url(#p80b3501d6f)">
     <use xlink:href="#C0_0_bbd2527f8f" x="150.289333" y="217.783786" style="fill: #2ca02c; fill-opacity: 0.4"/>
    </g>
    <g clip-path="url(#p80b3501d6f)">
     <use xlink:href="#C0_0_bbd2527f8f" x="125.666645" y="210.53198" style="fill: #2ca02c; fill-opacity: 0.4"/>
    </g>
    <g clip-path="url(#p80b3501d6f)">
     <use xlink:href="#C0_0_bbd2527f8f" x="138.895284" y="177.898854" style="fill: #2ca02c; fill-opacity: 0.4"/>
    </g>
    <g clip-path="url(#p80b3501d6f)">
     <use xlink:href="#C0_0_bbd2527f8f" x="132.586272" y="170.647049" style="fill: #2ca02c; fill-opacity: 0.4"/>
    </g>
    <g clip-path="url(#p80b3501d6f)">
     <use xlink:href="#C0_0_bbd2527f8f" x="155.697255" y="241.352154" style="fill: #2ca02c; fill-opacity: 0.4"/>
    </g>
    <g clip-path="url(#p80b3501d6f)">
     <use xlink:href="#C0_0_bbd2527f8f" x="151.207351" y="167.021146" style="fill: #2ca02c; fill-opacity: 0.4"/>
    </g>
    <g clip-path="url(#p80b3501d6f)">
     <use xlink:href="#C0_0_bbd2527f8f" x="127.511963" y="167.021146" style="fill: #2ca02c; fill-opacity: 0.4"/>
    </g>
    <g clip-path="url(#p80b3501d6f)">
     <use xlink:href="#C0_0_bbd2527f8f" x="126.584173" y="268.546426" style="fill: #2ca02c; fill-opacity: 0.4"/>
    </g>
    <g clip-path="url(#p80b3501d6f)">
     <use xlink:href="#C0_0_bbd2527f8f" x="156.148583" y="201.467223" style="fill: #2ca02c; fill-opacity: 0.4"/>
    </g>
    <g clip-path="url(#p80b3501d6f)">
     <use xlink:href="#C0_0_bbd2527f8f" x="142.891531" y="176.085903" style="fill: #2ca02c; fill-opacity: 0.4"/>
    </g>
    <g clip-path="url(#p80b3501d6f)">
     <use xlink:href="#C0_0_bbd2527f8f" x="157.865362" y="112.632603" style="fill: #2ca02c; fill-opacity: 0.4"/>
    </g>
    <g clip-path="url(#p80b3501d6f)">
     <use xlink:href="#C0_0_bbd2527f8f" x="134.584327" y="264.920523" style="fill: #2ca02c; fill-opacity: 0.4"/>
    </g>
    <g clip-path="url(#p80b3501d6f)">
     <use xlink:href="#C0_0_bbd2527f8f" x="146.190281" y="277.611183" style="fill: #2ca02c; fill-opacity: 0.4"/>
    </g>
    <g clip-path="url(#p80b3501d6f)">
     <use xlink:href="#C0_0_bbd2527f8f" x="140.052921" y="206.906077" style="fill: #2ca02c; fill-opacity: 0.4"/>
    </g>
    <g clip-path="url(#p80b3501d6f)">
     <use xlink:href="#C0_0_bbd2527f8f" x="156.845932" y="205.093126" style="fill: #2ca02c; fill-opacity: 0.4"/>
    </g>
    <g clip-path="url(#p80b3501d6f)">
     <use xlink:href="#C0_0_bbd2527f8f" x="130.542135" y="118.071457" style="fill: #2ca02c; fill-opacity: 0.4"/>
    </g>
    <g clip-path="url(#p80b3501d6f)">
     <use xlink:href="#C0_0_bbd2527f8f" x="125.896267" y="235.9133" style="fill: #2ca02c; fill-opacity: 0.4"/>
    </g>
    <g clip-path="url(#p80b3501d6f)">
     <use xlink:href="#C0_0_bbd2527f8f" x="153.441944" y="199.654271" style="fill: #2ca02c; fill-opacity: 0.4"/>
    </g>
    <g clip-path="url(#p80b3501d6f)">
     <use xlink:href="#C0_0_bbd2527f8f" x="155.231166" y="103.567846" style="fill: #2ca02c; fill-opacity: 0.4"/>
    </g>
    <g clip-path="url(#p80b3501d6f)">
     <use xlink:href="#C0_0_bbd2527f8f" x="130.660602" y="125.323263" style="fill: #2ca02c; fill-opacity: 0.4"/>
    </g>
    <g clip-path="url(#p80b3501d6f)">
     <use xlink:href="#C0_0_bbd2527f8f" x="137.887773" y="128.949166" style="fill: #2ca02c; fill-opacity: 0.4"/>
    </g>
    <g clip-path="url(#p80b3501d6f)">
     <use xlink:href="#C0_0_bbd2527f8f" x="154.438966" y="268.546426" style="fill: #2ca02c; fill-opacity: 0.4"/>
    </g>
    <g clip-path="url(#p80b3501d6f)">
     <use xlink:href="#C0_0_bbd2527f8f" x="149.330305" y="219.596737" style="fill: #2ca02c; fill-opacity: 0.4"/>
    </g>
    <g clip-path="url(#p80b3501d6f)">
     <use xlink:href="#C0_0_bbd2527f8f" x="140.860793" y="185.15066" style="fill: #2ca02c; fill-opacity: 0.4"/>
    </g>
    <g clip-path="url(#p80b3501d6f)">
     <use xlink:href="#C0_0_bbd2527f8f" x="127.65438" y="101.754894" style="fill: #2ca02c; fill-opacity: 0.4"/>
    </g>
    <g clip-path="url(#p80b3501d6f)">
     <use xlink:href="#C0_0_bbd2527f8f" x="149.523036" y="145.265729" style="fill: #2ca02c; fill-opacity: 0.4"/>
    </g>
    <g clip-path="url(#p80b3501d6f)">
     <use xlink:href="#C0_0_bbd2527f8f" x="126.147501" y="266.733474" style="fill: #2ca02c; fill-opacity: 0.4"/>
    </g>
    <g clip-path="url(#p80b3501d6f)">
     <use xlink:href="#C0_0_bbd2527f8f" x="152.510132" y="205.093126" style="fill: #2ca02c; fill-opacity: 0.4"/>
    </g>
    <g clip-path="url(#p80b3501d6f)">
     <use xlink:href="#C0_0_bbd2527f8f" x="151.542246" y="185.15066" style="fill: #2ca02c; fill-opacity: 0.4"/>
    </g>
    <g clip-path="url(#p80b3501d6f)">
     <use xlink:href="#C0_0_bbd2527f8f" x="148.528839" y="40.114545" style="fill: #2ca02c; fill-opacity: 0.4"/>
    </g>
    <g clip-path="url(#p80b3501d6f)">
     <use xlink:href="#C0_0_bbd2527f8f" x="157.13753" y="275.798232" style="fill: #2ca02c; fill-opacity: 0.4"/>
    </g>
    <g clip-path="url(#p80b3501d6f)">
     <use xlink:href="#C0_0_bbd2527f8f" x="157.533601" y="156.143437" style="fill: #2ca02c; fill-opacity: 0.4"/>
    </g>
    <g clip-path="url(#p80b3501d6f)">
     <use xlink:href="#C0_0_bbd2527f8f" x="145.131538" y="136.200971" style="fill: #2ca02c; fill-opacity: 0.4"/>
    </g>
    <g clip-path="url(#p80b3501d6f)">
     <use xlink:href="#C0_0_bbd2527f8f" x="160.898943" y="288.488892" style="fill: #2ca02c; fill-opacity: 0.4"/>
    </g>
    <g clip-path="url(#p80b3501d6f)">
     <use xlink:href="#C0_0_bbd2527f8f" x="135.81801" y="279.424134" style="fill: #2ca02c; fill-opacity: 0.4"/>
    </g>
    <g clip-path="url(#p80b3501d6f)">
     <use xlink:href="#C0_0_bbd2527f8f" x="154.940773" y="230.474446" style="fill: #2ca02c; fill-opacity: 0.4"/>
    </g>
    <g clip-path="url(#p80b3501d6f)">
     <use xlink:href="#C0_0_bbd2527f8f" x="127.640431" y="301.179552" style="fill: #2ca02c; fill-opacity: 0.4"/>
    </g>
    <g clip-path="url(#p80b3501d6f)">
     <use xlink:href="#C0_0_bbd2527f8f" x="158.982671" y="179.711806" style="fill: #2ca02c; fill-opacity: 0.4"/>
    </g>
    <g clip-path="url(#p80b3501d6f)">
     <use xlink:href="#C0_0_bbd2527f8f" x="134.162924" y="293.927746" style="fill: #2ca02c; fill-opacity: 0.4"/>
    </g>
    <g clip-path="url(#p80b3501d6f)">
     <use xlink:href="#C0_0_bbd2527f8f" x="159.134388" y="179.711806" style="fill: #2ca02c; fill-opacity: 0.4"/>
    </g>
    <g clip-path="url(#p80b3501d6f)">
     <use xlink:href="#C0_0_bbd2527f8f" x="160.591089" y="127.136214" style="fill: #2ca02c; fill-opacity: 0.4"/>
    </g>
    <g clip-path="url(#p80b3501d6f)">
     <use xlink:href="#C0_0_bbd2527f8f" x="154.930232" y="252.229863" style="fill: #2ca02c; fill-opacity: 0.4"/>
    </g>
    <g clip-path="url(#p80b3501d6f)">
     <use xlink:href="#C0_0_bbd2527f8f" x="136.384879" y="290.301843" style="fill: #2ca02c; fill-opacity: 0.4"/>
    </g>
    <g clip-path="url(#p80b3501d6f)">
     <use xlink:href="#C0_0_bbd2527f8f" x="126.716871" y="136.200971" style="fill: #2ca02c; fill-opacity: 0.4"/>
    </g>
    <g clip-path="url(#p80b3501d6f)">
     <use xlink:href="#C0_0_bbd2527f8f" x="129.872946" y="190.589514" style="fill: #2ca02c; fill-opacity: 0.4"/>
    </g>
    <g clip-path="url(#p80b3501d6f)">
     <use xlink:href="#C0_0_bbd2527f8f" x="147.765197" y="90.877186" style="fill: #2ca02c; fill-opacity: 0.4"/>
    </g>
    <g clip-path="url(#p80b3501d6f)">
     <use xlink:href="#C0_0_bbd2527f8f" x="146.100703" y="244.978057" style="fill: #2ca02c; fill-opacity: 0.4"/>
    </g>
    <g clip-path="url(#p80b3501d6f)">
     <use xlink:href="#C0_0_bbd2527f8f" x="133.025037" y="147.07868" style="fill: #2ca02c; fill-opacity: 0.4"/>
    </g>
    <g clip-path="url(#p80b3501d6f)">
     <use xlink:href="#C0_0_bbd2527f8f" x="152.893194" y="190.589514" style="fill: #2ca02c; fill-opacity: 0.4"/>
    </g>
    <g clip-path="url(#p80b3501d6f)">
     <use xlink:href="#C0_0_bbd2527f8f" x="157.564913" y="241.352154" style="fill: #2ca02c; fill-opacity: 0.4"/>
    </g>
    <g clip-path="url(#p80b3501d6f)">
     <use xlink:href="#C0_0_bbd2527f8f" x="128.625988" y="214.157883" style="fill: #2ca02c; fill-opacity: 0.4"/>
    </g>
    <g clip-path="url(#p80b3501d6f)">
     <use xlink:href="#C0_0_bbd2527f8f" x="126.323621" y="281.237086" style="fill: #2ca02c; fill-opacity: 0.4"/>
    </g>
    <g clip-path="url(#p80b3501d6f)">
     <use xlink:href="#C0_0_bbd2527f8f" x="156.119109" y="165.208194" style="fill: #2ca02c; fill-opacity: 0.4"/>
    </g>
    <g clip-path="url(#p80b3501d6f)">
     <use xlink:href="#C0_0_bbd2527f8f" x="142.781667" y="261.29462" style="fill: #2ca02c; fill-opacity: 0.4"/>
    </g>
    <g clip-path="url(#p80b3501d6f)">
     <use xlink:href="#C0_0_bbd2527f8f" x="126.382469" y="257.668717" style="fill: #2ca02c; fill-opacity: 0.4"/>
    </g>
    <g clip-path="url(#p80b3501d6f)">
     <use xlink:href="#C0_0_bbd2527f8f" x="131.901724" y="297.553649" style="fill: #2ca02c; fill-opacity: 0.4"/>
    </g>
    <g clip-path="url(#p80b3501d6f)">
     <use xlink:href="#C0_0_bbd2527f8f" x="162.019405" y="118.071457" style="fill: #2ca02c; fill-opacity: 0.4"/>
    </g>
    <g clip-path="url(#p80b3501d6f)">
     <use xlink:href="#C0_0_bbd2527f8f" x="125.480692" y="136.200971" style="fill: #2ca02c; fill-opacity: 0.4"/>
    </g>
    <g clip-path="url(#p80b3501d6f)">
     <use xlink:href="#C0_0_bbd2527f8f" x="145.200389" y="154.330486" style="fill: #2ca02c; fill-opacity: 0.4"/>
    </g>
    <g clip-path="url(#p80b3501d6f)">
     <use xlink:href="#C0_0_bbd2527f8f" x="152.604058" y="221.409689" style="fill: #2ca02c; fill-opacity: 0.4"/>
    </g>
    <g clip-path="url(#p80b3501d6f)">
     <use xlink:href="#C0_0_bbd2527f8f" x="142.984684" y="159.76934" style="fill: #2ca02c; fill-opacity: 0.4"/>
    </g>
    <g clip-path="url(#p80b3501d6f)">
     <use xlink:href="#C0_0_bbd2527f8f" x="127.931984" y="197.84132" style="fill: #2ca02c; fill-opacity: 0.4"/>
    </g>
    <g clip-path="url(#p80b3501d6f)">
     <use xlink:href="#C0_0_bbd2527f8f" x="145.918622" y="119.884408" style="fill: #2ca02c; fill-opacity: 0.4"/>
    </g>
    <g clip-path="url(#p80b3501d6f)">
     <use xlink:href="#C0_0_bbd2527f8f" x="148.832544" y="210.53198" style="fill: #2ca02c; fill-opacity: 0.4"/>
    </g>
    <g clip-path="url(#p80b3501d6f)">
     <use xlink:href="#C0_0_bbd2527f8f" x="127.013149" y="273.98528" style="fill: #2ca02c; fill-opacity: 0.4"/>
    </g>
    <g clip-path="url(#p80b3501d6f)">
     <use xlink:href="#C0_0_bbd2527f8f" x="126.416498" y="248.60396" style="fill: #2ca02c; fill-opacity: 0.4"/>
    </g>
    <g clip-path="url(#p80b3501d6f)">
     <use xlink:href="#C0_0_bbd2527f8f" x="136.579276" y="49.179303" style="fill: #2ca02c; fill-opacity: 0.4"/>
    </g>
    <g clip-path="url(#p80b3501d6f)">
     <use xlink:href="#C0_0_bbd2527f8f" x="140.233601" y="145.265729" style="fill: #2ca02c; fill-opacity: 0.4"/>
    </g>
    <g clip-path="url(#p80b3501d6f)">
     <use xlink:href="#C0_0_bbd2527f8f" x="128.393872" y="156.143437" style="fill: #2ca02c; fill-opacity: 0.4"/>
    </g>
    <g clip-path="url(#p80b3501d6f)">
     <use xlink:href="#C0_0_bbd2527f8f" x="140.773247" y="225.035592" style="fill: #2ca02c; fill-opacity: 0.4"/>
    </g>
    <g clip-path="url(#p80b3501d6f)">
     <use xlink:href="#C0_0_bbd2527f8f" x="135.656869" y="221.409689" style="fill: #2ca02c; fill-opacity: 0.4"/>
    </g>
    <g clip-path="url(#p80b3501d6f)">
     <use xlink:href="#C0_0_bbd2527f8f" x="126.138475" y="194.215417" style="fill: #2ca02c; fill-opacity: 0.4"/>
    </g>
    <g clip-path="url(#p80b3501d6f)">
     <use xlink:href="#C0_0_bbd2527f8f" x="157.917172" y="170.647049" style="fill: #2ca02c; fill-opacity: 0.4"/>
    </g>
    <g clip-path="url(#p80b3501d6f)">
     <use xlink:href="#C0_0_bbd2527f8f" x="137.121923" y="176.085903" style="fill: #2ca02c; fill-opacity: 0.4"/>
    </g>
    <g clip-path="url(#p80b3501d6f)">
     <use xlink:href="#C0_0_bbd2527f8f" x="134.067652" y="235.9133" style="fill: #2ca02c; fill-opacity: 0.4"/>
    </g>
    <g clip-path="url(#p80b3501d6f)">
     <use xlink:href="#C0_0_bbd2527f8f" x="126.154586" y="304.805455" style="fill: #2ca02c; fill-opacity: 0.4"/>
    </g>
    <g clip-path="url(#p80b3501d6f)">
     <use xlink:href="#C0_0_bbd2527f8f" x="129.334953" y="161.582291" style="fill: #2ca02c; fill-opacity: 0.4"/>
    </g>
    <g clip-path="url(#p80b3501d6f)">
     <use xlink:href="#C0_0_bbd2527f8f" x="125.999838" y="212.344932" style="fill: #2ca02c; fill-opacity: 0.4"/>
    </g>
    <g clip-path="url(#p80b3501d6f)">
     <use xlink:href="#C0_0_bbd2527f8f" x="127.115733" y="201.467223" style="fill: #2ca02c; fill-opacity: 0.4"/>
    </g>
   </g>
   <g id="PathCollection_2">
    <defs>
     <path id="C1_0_5fc52d24dc" d="M 0 2 
C 0.530406 2 1.03916 1.789267 1.414214 1.414214 
C 1.789267 1.03916 2 0.530406 2 -0 
C 2 -0.530406 1.789267 -1.03916 1.414214 -1.414214 
C 1.03916 -1.789267 0.530406 -2 0 -2 
C -0.530406 -2 -1.03916 -1.789267 -1.414214 -1.414214 
C -1.789267 -1.03916 -2 -0.530406 -2 0 
C -2 0.530406 -1.789267 1.03916 -1.414214 1.414214 
C -1.03916 1.789267 -0.530406 2 0 2 
z
"/>
    </defs>
    <g clip-path="url(#p80b3501d6f)">
     <use xlink:href="#C1_0_5fc52d24dc" x="344.703363" y="165.208194" style="fill: #d62728; fill-opacity: 0.4"/>
    </g>
    <g clip-path="url(#p80b3501d6f)">
     <use xlink:href="#C1_0_5fc52d24dc" x="328.437749" y="168.834097" style="fill: #d62728; fill-opacity: 0.4"/>
    </g>
    <g clip-path="url(#p80b3501d6f)">
     <use xlink:href="#C1_0_5fc52d24dc" x="322.319486" y="210.53198" style="fill: #d62728; fill-opacity: 0.4"/>
    </g>
    <g clip-path="url(#p80b3501d6f)">
     <use xlink:href="#C1_0_5fc52d24dc" x="319.665864" y="167.021146" style="fill: #d62728; fill-opacity: 0.4"/>
    </g>
    <g clip-path="url(#p80b3501d6f)">
     <use xlink:href="#C1_0_5fc52d24dc" x="332.067768" y="138.013923" style="fill: #d62728; fill-opacity: 0.4"/>
    </g>
    <g clip-path="url(#p80b3501d6f)">
     <use xlink:href="#C1_0_5fc52d24dc" x="312.389848" y="159.76934" style="fill: #d62728; fill-opacity: 0.4"/>
    </g>
    <g clip-path="url(#p80b3501d6f)">
     <use xlink:href="#C1_0_5fc52d24dc" x="329.315135" y="196.028369" style="fill: #d62728; fill-opacity: 0.4"/>
    </g>
    <g clip-path="url(#p80b3501d6f)">
     <use xlink:href="#C1_0_5fc52d24dc" x="333.922222" y="109.0067" style="fill: #d62728; fill-opacity: 0.4"/>
    </g>
    <g clip-path="url(#p80b3501d6f)">
     <use xlink:href="#C1_0_5fc52d24dc" x="341.806638" y="254.042814" style="fill: #d62728; fill-opacity: 0.4"/>
    </g>
    <g clip-path="url(#p80b3501d6f)">
     <use xlink:href="#C1_0_5fc52d24dc" x="327.324727" y="243.165106" style="fill: #d62728; fill-opacity: 0.4"/>
    </g>
    <g clip-path="url(#p80b3501d6f)">
     <use xlink:href="#C1_0_5fc52d24dc" x="331.146799" y="196.028369" style="fill: #d62728; fill-opacity: 0.4"/>
    </g>
    <g clip-path="url(#p80b3501d6f)">
     <use xlink:href="#C1_0_5fc52d24dc" x="313.816729" y="196.028369" style="fill: #d62728; fill-opacity: 0.4"/>
    </g>
    <g clip-path="url(#p80b3501d6f)">
     <use xlink:href="#C1_0_5fc52d24dc" x="334.928706" y="157.956389" style="fill: #d62728; fill-opacity: 0.4"/>
    </g>
    <g clip-path="url(#p80b3501d6f)">
     <use xlink:href="#C1_0_5fc52d24dc" x="345.44171" y="69.121768" style="fill: #d62728; fill-opacity: 0.4"/>
    </g>
    <g clip-path="url(#p80b3501d6f)">
     <use xlink:href="#C1_0_5fc52d24dc" x="323.365815" y="130.762117" style="fill: #d62728; fill-opacity: 0.4"/>
    </g>
    <g clip-path="url(#p80b3501d6f)">
     <use xlink:href="#C1_0_5fc52d24dc" x="314.394644" y="63.682914" style="fill: #d62728; fill-opacity: 0.4"/>
    </g>
    <g clip-path="url(#p80b3501d6f)">
     <use xlink:href="#C1_0_5fc52d24dc" x="342.886407" y="165.208194" style="fill: #d62728; fill-opacity: 0.4"/>
    </g>
    <g clip-path="url(#p80b3501d6f)">
     <use xlink:href="#C1_0_5fc52d24dc" x="319.757389" y="212.344932" style="fill: #d62728; fill-opacity: 0.4"/>
    </g>
    <g clip-path="url(#p80b3501d6f)">
     <use xlink:href="#C1_0_5fc52d24dc" x="339.252295" y="138.013923" style="fill: #d62728; fill-opacity: 0.4"/>
    </g>
    <g clip-path="url(#p80b3501d6f)">
     <use xlink:href="#C1_0_5fc52d24dc" x="321.619296" y="109.0067" style="fill: #d62728; fill-opacity: 0.4"/>
    </g>
    <g clip-path="url(#p80b3501d6f)">
     <use xlink:href="#C1_0_5fc52d24dc" x="317.499185" y="130.762117" style="fill: #d62728; fill-opacity: 0.4"/>
    </g>
   </g>
   <g id="text_13">
    <g id="patch_9">
     <path d="M 166.603438 54.116125 
L 305.556563 54.116125 
Q 308.556563 54.116125 308.556563 51.116125 
L 308.556563 41.438 
Q 308.556563 38.438 305.556563 38.438 
L 166.603438 38.438 
Q 163.603438 38.438 163.603438 41.438 
L 163.603438 51.116125 
Q 163.603438 54.116125 166.603438 54.116125 
z
" style="fill: #f5deb3; opacity: 0.5; stroke: #000000; stroke-linejoin: miter"/>
    </g>
    <!-- Mann-Whitney U: p = 0.013 -->
    <g transform="translate(166.603438 49.036437) scale(0.1 -0.1)">
     <defs>
      <path id="DejaVuSans-Oblique-4d" d="M 1081 4666 
L 2028 4666 
L 2572 1522 
L 4378 4666 
L 5350 4666 
L 4441 0 
L 3828 0 
L 4622 4091 
L 2791 897 
L 2175 897 
L 1581 4103 
L 788 0 
L 172 0 
L 1081 4666 
z
" transform="scale(0.015625)"/>
      <path id="DejaVuSans-Oblique-61" d="M 3438 1997 
L 3047 0 
L 2472 0 
L 2578 531 
Q 2325 219 2001 64 
Q 1678 -91 1281 -91 
Q 834 -91 548 182 
Q 263 456 263 884 
Q 263 1497 752 1853 
Q 1241 2209 2100 2209 
L 2900 2209 
L 2931 2363 
Q 2938 2388 2941 2417 
Q 2944 2447 2944 2509 
Q 2944 2788 2717 2942 
Q 2491 3097 2081 3097 
Q 1800 3097 1504 3025 
Q 1209 2953 897 2809 
L 997 3341 
Q 1322 3463 1633 3523 
Q 1944 3584 2234 3584 
Q 2853 3584 3176 3315 
Q 3500 3047 3500 2534 
Q 3500 2431 3484 2292 
Q 3469 2153 3438 1997 
z
M 2816 1759 
L 2241 1759 
Q 1534 1759 1195 1570 
Q 856 1381 856 984 
Q 856 709 1029 553 
Q 1203 397 1509 397 
Q 1978 397 2328 733 
Q 2678 1069 2791 1631 
L 2816 1759 
z
" transform="scale(0.015625)"/>
      <path id="DejaVuSans-Oblique-6e" d="M 3566 2113 
L 3156 0 
L 2578 0 
L 2988 2091 
Q 3016 2238 3031 2350 
Q 3047 2463 3047 2528 
Q 3047 2791 2881 2937 
Q 2716 3084 2419 3084 
Q 1956 3084 1622 2776 
Q 1288 2469 1184 1941 
L 800 0 
L 225 0 
L 903 3500 
L 1478 3500 
L 1363 2950 
Q 1603 3253 1940 3418 
Q 2278 3584 2650 3584 
Q 3113 3584 3367 3334 
Q 3622 3084 3622 2631 
Q 3622 2519 3608 2391 
Q 3594 2263 3566 2113 
z
" transform="scale(0.015625)"/>
      <path id="DejaVuSans-Oblique-2d" d="M 391 2009 
L 2075 2009 
L 1978 1497 
L 288 1497 
L 391 2009 
z
" transform="scale(0.015625)"/>
      <path id="DejaVuSans-Oblique-57" d="M 616 4666 
L 1228 4666 
L 1453 697 
L 3213 4666 
L 3916 4666 
L 4147 697 
L 5888 4666 
L 6528 4666 
L 4453 0 
L 3659 0 
L 3444 3891 
L 1697 0 
L 903 0 
L 616 4666 
z
" transform="scale(0.015625)"/>
      <path id="DejaVuSans-Oblique-68" d="M 3566 2113 
L 3156 0 
L 2578 0 
L 2988 2091 
Q 3016 2238 3031 2350 
Q 3047 2463 3047 2528 
Q 3047 2791 2881 2937 
Q 2716 3084 2419 3084 
Q 1956 3084 1617 2771 
Q 1278 2459 1178 1941 
L 800 0 
L 225 0 
L 1172 4863 
L 1747 4863 
L 1375 2950 
Q 1594 3244 1934 3414 
Q 2275 3584 2650 3584 
Q 3113 3584 3367 3334 
Q 3622 3084 3622 2631 
Q 3622 2519 3608 2391 
Q 3594 2263 3566 2113 
z
" transform="scale(0.015625)"/>
      <path id="DejaVuSans-Oblique-69" d="M 1172 4863 
L 1747 4863 
L 1606 4134 
L 1031 4134 
L 1172 4863 
z
M 909 3500 
L 1484 3500 
L 800 0 
L 225 0 
L 909 3500 
z
" transform="scale(0.015625)"/>
      <path id="DejaVuSans-Oblique-74" d="M 2706 3500 
L 2619 3053 
L 1472 3053 
L 1100 1153 
Q 1081 1047 1072 975 
Q 1063 903 1063 863 
Q 1063 663 1183 572 
Q 1303 481 1569 481 
L 2150 481 
L 2053 0 
L 1503 0 
Q 991 0 739 200 
Q 488 400 488 806 
Q 488 878 497 964 
Q 506 1050 525 1153 
L 897 3053 
L 409 3053 
L 500 3500 
L 978 3500 
L 1172 4494 
L 1747 4494 
L 1556 3500 
L 2706 3500 
z
" transform="scale(0.015625)"/>
      <path id="DejaVuSans-Oblique-65" d="M 3078 2063 
Q 3088 2113 3092 2166 
Q 3097 2219 3097 2272 
Q 3097 2653 2873 2875 
Q 2650 3097 2266 3097 
Q 1838 3097 1509 2826 
Q 1181 2556 1013 2059 
L 3078 2063 
z
M 3578 1613 
L 903 1613 
Q 884 1494 878 1425 
Q 872 1356 872 1306 
Q 872 872 1139 634 
Q 1406 397 1894 397 
Q 2269 397 2603 481 
Q 2938 566 3225 728 
L 3116 159 
Q 2806 34 2476 -28 
Q 2147 -91 1806 -91 
Q 1078 -91 686 257 
Q 294 606 294 1247 
Q 294 1794 489 2264 
Q 684 2734 1063 3103 
Q 1306 3334 1642 3459 
Q 1978 3584 2356 3584 
Q 2950 3584 3301 3228 
Q 3653 2872 3653 2272 
Q 3653 2128 3634 1964 
Q 3616 1800 3578 1613 
z
" transform="scale(0.015625)"/>
      <path id="DejaVuSans-Oblique-79" d="M 1588 -325 
Q 1188 -997 936 -1164 
Q 684 -1331 294 -1331 
L -159 -1331 
L -63 -850 
L 269 -850 
Q 509 -850 678 -719 
Q 847 -588 1056 -206 
L 1234 128 
L 459 3500 
L 1069 3500 
L 1650 819 
L 3256 3500 
L 3859 3500 
L 1588 -325 
z
" transform="scale(0.015625)"/>
      <path id="DejaVuSans-Oblique-20" transform="scale(0.015625)"/>
      <path id="DejaVuSans-Oblique-55" d="M 991 4666 
L 1625 4666 
L 1075 1831 
Q 1041 1641 1027 1517 
Q 1013 1394 1013 1300 
Q 1013 869 1253 645 
Q 1494 422 1959 422 
Q 2563 422 2898 753 
Q 3234 1084 3378 1831 
L 3928 4666 
L 4563 4666 
L 4000 1753 
Q 3816 809 3300 359 
Q 2784 -91 1888 -91 
Q 1188 -91 780 261 
Q 372 613 372 1216 
Q 372 1325 387 1461 
Q 403 1597 434 1753 
L 991 4666 
z
" transform="scale(0.015625)"/>
      <path id="DejaVuSans-Oblique-3a" d="M 978 3309 
L 1638 3309 
L 1484 2516 
L 825 2516 
L 978 3309 
z
M 488 794 
L 1147 794 
L 991 0 
L 331 0 
L 488 794 
z
" transform="scale(0.015625)"/>
      <path id="DejaVuSans-Oblique-70" d="M 3175 2156 
Q 3175 2616 2975 2859 
Q 2775 3103 2400 3103 
Q 2144 3103 1911 2972 
Q 1678 2841 1497 2591 
Q 1319 2344 1212 1994 
Q 1106 1644 1106 1300 
Q 1106 863 1306 627 
Q 1506 391 1875 391 
Q 2147 391 2380 519 
Q 2613 647 2778 891 
Q 2956 1147 3065 1494 
Q 3175 1841 3175 2156 
z
M 1394 2969 
Q 1625 3272 1939 3428 
Q 2253 3584 2638 3584 
Q 3175 3584 3472 3232 
Q 3769 2881 3769 2247 
Q 3769 1728 3584 1258 
Q 3400 788 3053 416 
Q 2822 169 2531 39 
Q 2241 -91 1919 -91 
Q 1547 -91 1294 64 
Q 1041 219 916 525 
L 556 -1331 
L -19 -1331 
L 922 3500 
L 1497 3500 
L 1394 2969 
z
" transform="scale(0.015625)"/>
      <path id="DejaVuSans-Oblique-3d" d="M 678 2906 
L 4684 2906 
L 4684 2381 
L 678 2381 
L 678 2906 
z
M 678 1631 
L 4684 1631 
L 4684 1100 
L 678 1100 
L 678 1631 
z
" transform="scale(0.015625)"/>
      <path id="DejaVuSans-Oblique-30" d="M 2444 4750 
Q 3078 4750 3414 4328 
Q 3750 3906 3750 3116 
Q 3750 2516 3592 1923 
Q 3434 1331 3150 863 
Q 2859 394 2467 151 
Q 2075 -91 1600 -91 
Q 988 -91 653 334 
Q 319 759 319 1544 
Q 319 2138 480 2733 
Q 641 3328 928 3794 
Q 1216 4263 1602 4506 
Q 1988 4750 2444 4750 
z
M 2406 4250 
Q 2169 4250 1955 4123 
Q 1741 3997 1569 3750 
Q 1281 3338 1111 2720 
Q 941 2103 941 1453 
Q 941 938 1123 673 
Q 1306 409 1663 409 
Q 1913 409 2125 536 
Q 2338 663 2509 909 
Q 2794 1319 2961 1936 
Q 3128 2553 3128 3206 
Q 3128 3722 2945 3986 
Q 2763 4250 2406 4250 
z
" transform="scale(0.015625)"/>
      <path id="DejaVuSans-Oblique-2e" d="M 525 794 
L 1184 794 
L 1031 0 
L 372 0 
L 525 794 
z
" transform="scale(0.015625)"/>
      <path id="DejaVuSans-Oblique-31" d="M 416 531 
L 1447 531 
L 2144 4122 
L 978 3897 
L 1088 4441 
L 2247 4666 
L 2881 4666 
L 2075 531 
L 3103 531 
L 3003 0 
L 313 0 
L 416 531 
z
" transform="scale(0.015625)"/>
      <path id="DejaVuSans-Oblique-33" d="M 1013 4550 
Q 1356 4650 1679 4700 
Q 2003 4750 2316 4750 
Q 2934 4750 3296 4475 
Q 3659 4200 3659 3738 
Q 3659 3284 3373 2959 
Q 3088 2634 2584 2516 
Q 2978 2403 3162 2165 
Q 3347 1928 3347 1538 
Q 3347 1163 3167 834 
Q 2988 506 2650 269 
Q 2394 88 2037 -1 
Q 1681 -91 1216 -91 
Q 922 -91 622 -33 
Q 322 25 13 141 
L 128 738 
Q 422 575 720 495 
Q 1019 416 1331 416 
Q 1947 416 2330 733 
Q 2713 1050 2713 1556 
Q 2713 1881 2469 2057 
Q 2225 2234 1772 2234 
L 1228 2234 
L 1325 2747 
L 1900 2747 
Q 2419 2747 2717 2984 
Q 3016 3222 3016 3628 
Q 3016 3922 2797 4083 
Q 2578 4244 2181 4244 
Q 1881 4244 1567 4180 
Q 1253 4116 916 3988 
L 1013 4550 
z
" transform="scale(0.015625)"/>
     </defs>
     <use xlink:href="#DejaVuSans-Oblique-4d"/>
     <use xlink:href="#DejaVuSans-Oblique-61" transform="translate(86.279297 0)"/>
     <use xlink:href="#DejaVuSans-Oblique-6e" transform="translate(147.558594 0)"/>
     <use xlink:href="#DejaVuSans-Oblique-6e" transform="translate(210.9375 0)"/>
     <use xlink:href="#DejaVuSans-Oblique-2d" transform="translate(274.316406 0)"/>
     <use xlink:href="#DejaVuSans-Oblique-57" transform="translate(308.650391 0)"/>
     <use xlink:href="#DejaVuSans-Oblique-68" transform="translate(407.527344 0)"/>
     <use xlink:href="#DejaVuSans-Oblique-69" transform="translate(470.90625 0)"/>
     <use xlink:href="#DejaVuSans-Oblique-74" transform="translate(498.689453 0)"/>
     <use xlink:href="#DejaVuSans-Oblique-6e" transform="translate(537.898438 0)"/>
     <use xlink:href="#DejaVuSans-Oblique-65" transform="translate(601.277344 0)"/>
     <use xlink:href="#DejaVuSans-Oblique-79" transform="translate(662.800781 0)"/>
     <use xlink:href="#DejaVuSans-Oblique-20" transform="translate(721.980469 0)"/>
     <use xlink:href="#DejaVuSans-Oblique-55" transform="translate(753.767578 0)"/>
     <use xlink:href="#DejaVuSans-Oblique-3a" transform="translate(826.960938 0)"/>
     <use xlink:href="#DejaVuSans-Oblique-20" transform="translate(860.652344 0)"/>
     <use xlink:href="#DejaVuSans-Oblique-70" transform="translate(892.439453 0)"/>
     <use xlink:href="#DejaVuSans-Oblique-20" transform="translate(955.916016 0)"/>
     <use xlink:href="#DejaVuSans-Oblique-3d" transform="translate(987.703125 0)"/>
     <use xlink:href="#DejaVuSans-Oblique-20" transform="translate(1071.492188 0)"/>
     <use xlink:href="#DejaVuSans-Oblique-30" transform="translate(1103.279297 0)"/>
     <use xlink:href="#DejaVuSans-Oblique-2e" transform="translate(1166.902344 0)"/>
     <use xlink:href="#DejaVuSans-Oblique-30" transform="translate(1198.689453 0)"/>
     <use xlink:href="#DejaVuSans-Oblique-31" transform="translate(1262.3125 0)"/>
     <use xlink:href="#DejaVuSans-Oblique-33" transform="translate(1325.935547 0)"/>
    </g>
   </g>
   <g id="text_14">
    <!-- atypical: Total VNTR Length (both alleles, repeats) by Detection -->
    <g transform="translate(45.371875 20.88) scale(0.12 -0.12)">
     <defs>
      <path id="DejaVuSans-79" d="M 2059 -325 
Q 1816 -950 1584 -1140 
Q 1353 -1331 966 -1331 
L 506 -1331 
L 506 -850 
L 844 -850 
Q 1081 -850 1212 -737 
Q 1344 -625 1503 -206 
L 1606 56 
L 191 3500 
L 800 3500 
L 1894 763 
L 2988 3500 
L 3597 3500 
L 2059 -325 
z
" transform="scale(0.015625)"/>
      <path id="DejaVuSans-3a" d="M 750 794 
L 1409 794 
L 1409 0 
L 750 0 
L 750 794 
z
M 750 3309 
L 1409 3309 
L 1409 2516 
L 750 2516 
L 750 3309 
z
" transform="scale(0.015625)"/>
     </defs>
     <use xlink:href="#DejaVuSans-61"/>
     <use xlink:href="#DejaVuSans-74" transform="translate(61.279297 0)"/>
     <use xlink:href="#DejaVuSans-79" transform="translate(100.488281 0)"/>
     <use xlink:href="#DejaVuSans-70" transform="translate(159.667969 0)"/>
     <use xlink:href="#DejaVuSans-69" transform="translate(223.144531 0)"/>
     <use xlink:href="#DejaVuSans-63" transform="translate(250.927734 0)"/>
     <use xlink:href="#DejaVuSans-61" transform="translate(305.908203 0)"/>
     <use xlink:href="#DejaVuSans-6c" transform="translate(367.1875 0)"/>
     <use xlink:href="#DejaVuSans-3a" transform="translate(394.970703 0)"/>
     <use xlink:href="#DejaVuSans-20" transform="translate(428.662109 0)"/>
     <use xlink:href="#DejaVuSans-54" transform="translate(460.449219 0)"/>
     <use xlink:href="#DejaVuSans-6f" transform="translate(504.533203 0)"/>
     <use xlink:href="#DejaVuSans-74" transform="translate(565.714844 0)"/>
     <use xlink:href="#DejaVuSans-61" transform="translate(604.923828 0)"/>
     <use xlink:href="#DejaVuSans-6c" transform="translate(666.203125 0)"/>
     <use xlink:href="#DejaVuSans-20" transform="translate(693.986328 0)"/>
     <use xlink:href="#DejaVuSans-56" transform="translate(725.773438 0)"/>
     <use xlink:href="#DejaVuSans-4e" transform="translate(794.181641 0)"/>
     <use xlink:href="#DejaVuSans-54" transform="translate(868.986328 0)"/>
     <use xlink:href="#DejaVuSans-52" transform="translate(930.070312 0)"/>
     <use xlink:href="#DejaVuSans-20" transform="translate(999.552734 0)"/>
     <use xlink:href="#DejaVuSans-4c" transform="translate(1031.339844 0)"/>
     <use xlink:href="#DejaVuSans-65" transform="translate(1085.302734 0)"/>
     <use xlink:href="#DejaVuSans-6e" transform="translate(1146.826172 0)"/>
     <use xlink:href="#DejaVuSans-67" transform="translate(1210.205078 0)"/>
     <use xlink:href="#DejaVuSans-74" transform="translate(1273.681641 0)"/>
     <use xlink:href="#DejaVuSans-68" transform="translate(1312.890625 0)"/>
     <use xlink:href="#DejaVuSans-20" transform="translate(1376.269531 0)"/>
     <use xlink:href="#DejaVuSans-28" transform="translate(1408.056641 0)"/>
     <use xlink:href="#DejaVuSans-62" transform="translate(1447.070312 0)"/>
     <use xlink:href="#DejaVuSans-6f" transform="translate(1510.546875 0)"/>
     <use xlink:href="#DejaVuSans-74" transform="translate(1571.728516 0)"/>
     <use xlink:href="#DejaVuSans-68" transform="translate(1610.9375 0)"/>
     <use xlink:href="#DejaVuSans-20" transform="translate(1674.316406 0)"/>
     <use xlink:href="#DejaVuSans-61" transform="translate(1706.103516 0)"/>
     <use xlink:href="#DejaVuSans-6c" transform="translate(1767.382812 0)"/>
     <use xlink:href="#DejaVuSans-6c" transform="translate(1795.166016 0)"/>
     <use xlink:href="#DejaVuSans-65" transform="translate(1822.949219 0)"/>
     <use xlink:href="#DejaVuSans-6c" transform="translate(1884.472656 0)"/>
     <use xlink:href="#DejaVuSans-65" transform="translate(1912.255859 0)"/>
     <use xlink:href="#DejaVuSans-73" transform="translate(1973.779297 0)"/>
     <use xlink:href="#DejaVuSans-2c" transform="translate(2025.878906 0)"/>
     <use xlink:href="#DejaVuSans-20" transform="translate(2057.666016 0)"/>
     <use xlink:href="#DejaVuSans-72" transform="translate(2089.453125 0)"/>
     <use xlink:href="#DejaVuSans-65" transform="translate(2128.316406 0)"/>
     <use xlink:href="#DejaVuSans-70" transform="translate(2189.839844 0)"/>
     <use xlink:href="#DejaVuSans-65" transform="translate(2253.316406 0)"/>
     <use xlink:href="#DejaVuSans-61" transform="translate(2314.839844 0)"/>
     <use xlink:href="#DejaVuSans-74" transform="translate(2376.119141 0)"/>
     <use xlink:href="#DejaVuSans-73" transform="translate(2415.328125 0)"/>
     <use xlink:href="#DejaVuSans-29" transform="translate(2467.427734 0)"/>
     <use xlink:href="#DejaVuSans-20" transform="translate(2506.441406 0)"/>
     <use xlink:href="#DejaVuSans-62" transform="translate(2538.228516 0)"/>
     <use xlink:href="#DejaVuSans-79" transform="translate(2601.705078 0)"/>
     <use xlink:href="#DejaVuSans-20" transform="translate(2660.884766 0)"/>
     <use xlink:href="#DejaVuSans-44" transform="translate(2692.671875 0)"/>
     <use xlink:href="#DejaVuSans-65" transform="translate(2769.673828 0)"/>
     <use xlink:href="#DejaVuSans-74" transform="translate(2831.197266 0)"/>
     <use xlink:href="#DejaVuSans-65" transform="translate(2870.40625 0)"/>
     <use xlink:href="#DejaVuSans-63" transform="translate(2931.929688 0)"/>
     <use xlink:href="#DejaVuSans-74" transform="translate(2986.910156 0)"/>
     <use xlink:href="#DejaVuSans-69" transform="translate(3026.119141 0)"/>
     <use xlink:href="#DejaVuSans-6f" transform="translate(3053.902344 0)"/>
     <use xlink:href="#DejaVuSans-6e" transform="translate(3115.083984 0)"/>
    </g>
   </g>
  </g>
 </g>
 <defs>
  <clipPath id="p80b3501d6f">
   <rect x="50.96" y="26.88" width="370.24" height="291.16"/>
  </clipPath>
 </defs>
</svg>
